<?xml version="1.0" standalone="no"?>
<!DOCTYPE svg PUBLIC "-//W3C//DTD SVG 20010904//EN"
 "http://www.w3.org/TR/2001/REC-SVG-20010904/DTD/svg10.dtd">
<svg version="1.0" xmlns="http://www.w3.org/2000/svg"
 width="1520.000000pt" height="1520.000000pt" viewBox="0 0 1520.000000 1520.000000"
 preserveAspectRatio="xMidYMid meet">
<metadata>
Created by potrace 1.11, written by Peter Selinger 2001-2013
</metadata>
<g transform="translate(0.000000,1520.000000) scale(0.100000,-0.100000)"
fill="#000000" stroke="none">
<path d="M0 7600 l0 -6400 7600 0 7600 0 0 5800 0 5800 -4803 0 -4802 0 -600
600 -600 600 -2197 0 -2198 0 0 -6400z m4748 5487 l513 -513 -430 -287 -431
-287 -2000 0 -2000 0 0 800 0 800 1918 0 1917 0 513 -513z m10052 -6087 l0
-5400 -7200 0 -7200 0 0 5000 0 5000 2063 1 2062 0 595 399 595 399 4543 0
4542 1 0 -5400z"/>
<path d="M7579 10486 c-3 -3 -61 -10 -130 -16 -1018 -83 -1956 -587 -2590
-1395 -618 -788 -890 -1807 -744 -2790 155 -1043 729 -1950 1602 -2533 596
-399 1315 -616 2033 -616 719 0 1435 217 2034 616 469 312 875 745 1148 1223
520 910 633 1973 314 2961 -304 941 -967 1714 -1852 2157 -419 210 -841 330
-1334 378 -131 13 -472 23 -481 15z m921 -1844 c64 -31 119 -87 149 -152 l26
-55 3 -812 2 -813 394 0 c395 0 517 -8 586 -36 82 -35 126 -113 118 -210 l-5
-56 -1011 -1011 -1012 -1012 -1010 1010 -1010 1010 0 63 c0 74 22 124 74 170
72 63 94 65 579 70 l437 3 0 800 c0 767 1 801 19 850 26 68 55 108 103 144 89
67 50 64 818 62 l695 -2 45 -23z"/>
</g>
</svg>
