<?xml version="1.0" standalone="no"?>
<!DOCTYPE svg PUBLIC "-//W3C//DTD SVG 20010904//EN"
 "http://www.w3.org/TR/2001/REC-SVG-20010904/DTD/svg10.dtd">
<svg version="1.0" xmlns="http://www.w3.org/2000/svg"
 width="1520.000000pt" height="1520.000000pt" viewBox="0 0 1520.000000 1520.000000"
 preserveAspectRatio="xMidYMid meet">
<metadata>
Created by potrace 1.11, written by Peter Selinger 2001-2013
</metadata>
<g transform="translate(0.000000,1520.000000) scale(0.100000,-0.100000)"
fill="#000000" stroke="none">
<path d="M0 7600 l0 -6400 7600 0 7600 0 0 5800 0 5800 -4803 0 -4802 0 -600
600 -600 600 -2197 0 -2198 0 0 -6400z m4748 5487 l513 -513 -430 -287 -431
-287 -2000 0 -2000 0 0 800 0 800 1918 0 1917 0 513 -513z m10052 -6087 l0
-5400 -7200 0 -7200 0 0 5000 0 5000 2063 1 2062 0 595 399 595 399 4543 0
4542 1 0 -5400z"/>
<path d="M7558 10445 c-3 -3 -63 -10 -133 -16 -709 -53 -1419 -344 -1985 -812
-118 -98 -315 -292 -423 -416 -760 -881 -1047 -2084 -762 -3203 208 -822 682
-1523 1370 -2028 594 -436 1354 -684 2100 -684 929 0 1820 363 2489 1014 358
348 621 732 810 1182 372 889 373 1877 0 2765 -463 1103 -1466 1917 -2629
2132 -165 30 -238 40 -370 53 -143 13 -458 22 -467 13z m853 -1781 c91 -27
163 -91 201 -179 10 -24 14 -202 18 -825 l5 -795 450 -5 c429 -5 452 -7 495
-27 57 -26 107 -81 116 -128 3 -20 4 -59 2 -87 l-5 -50 -979 -979 c-538 -539
-983 -979 -989 -979 -6 0 -451 441 -990 980 l-980 980 1 63 c2 100 38 153 134
200 44 21 59 22 485 27 l440 5 5 795 c4 623 8 801 18 825 38 86 110 151 197
178 77 24 1296 24 1376 1z"/>
</g>
</svg>
