<?xml version="1.0" standalone="no"?>
<!DOCTYPE svg PUBLIC "-//W3C//DTD SVG 20010904//EN"
 "http://www.w3.org/TR/2001/REC-SVG-20010904/DTD/svg10.dtd">
<svg version="1.0" xmlns="http://www.w3.org/2000/svg"
 width="1520.000000pt" height="1520.000000pt" viewBox="0 0 1520.000000 1520.000000"
 preserveAspectRatio="xMidYMid meet">
<metadata>
Created by potrace 1.11, written by Peter Selinger 2001-2013
</metadata>
<g transform="translate(0.000000,1520.000000) scale(0.100000,-0.100000)"
fill="#000000" stroke="none">
<path d="M0 7600 l0 -6400 7600 0 7600 0 0 5800 0 5800 -4803 0 -4802 0 -600
600 -600 600 -2197 0 -2198 0 0 -6400z m4748 5487 l513 -513 -430 -287 -431
-287 -2000 0 -2000 0 0 800 0 800 1918 0 1917 0 513 -513z m10052 -6087 l0
-5400 -7200 0 -7200 0 0 5000 0 5000 2063 1 2062 0 595 399 595 399 4543 0
4542 1 0 -5400z"/>
<path d="M7420 11629 c-303 -26 -502 -55 -717 -105 -152 -34 -200 -46 -223
-54 -14 -4 -45 -13 -70 -20 -625 -177 -1243 -512 -1760 -955 -214 -183 -485
-465 -630 -655 -243 -318 -391 -556 -544 -871 -118 -243 -220 -509 -286 -739
-7 -25 -16 -56 -20 -70 -8 -23 -20 -71 -54 -222 -72 -315 -116 -703 -116
-1028 0 -325 44 -713 116 -1027 34 -152 46 -200 54 -223 4 -14 13 -45 20 -70
122 -429 337 -894 593 -1280 83 -125 128 -187 237 -330 145 -190 416 -472 630
-655 474 -406 1000 -705 1586 -901 589 -196 1244 -278 1834 -229 670 56 1225
209 1791 495 535 270 1030 654 1419 1100 114 131 143 166 254 315 180 240 392
601 511 870 79 179 178 449 225 615 7 25 16 56 21 70 10 31 56 220 70 292 131
676 131 1240 0 1916 -14 72 -60 261 -70 292 -5 14 -14 45 -21 70 -73 256 -189
552 -317 805 -143 282 -289 511 -513 805 -145 189 -413 468 -630 655 -507 437
-1137 778 -1760 955 -25 7 -56 16 -70 20 -23 8 -71 20 -222 54 -416 95 -959
138 -1338 105z m1157 -2328 c178 -26 314 -159 343 -332 6 -41 10 -424 10
-1061 l0 -998 508 0 c654 -1 734 -10 825 -98 70 -67 93 -140 76 -238 l-10 -60
-1300 -1300 -1299 -1299 -1300 1300 -1300 1300 0 81 c0 51 6 95 15 118 24 56
89 121 148 147 96 42 195 48 735 49 l502 0 0 998 c0 637 4 1020 10 1061 28
169 166 306 334 331 74 11 1629 11 1703 1z"/>
</g>
</svg>
